solid OpenSCAD_Model
  facet normal 0.673313 -0.278801 0.684777
    outer loop
      vertex 119.744 5.55886 5
      vertex 75.6773 9.66317 50
      vertex 118.995 3.75 5
    endloop
  endfacet
  facet normal -0.898467 -0.291929 -0.327924
    outer loop
      vertex -15.6773 9.66317 40
      vertex -18.9074 19.6044 40
      vertex 0.255556 5.55886 0
    endloop
  endfacet
  facet normal 0.382658 -0.92389 0
    outer loop
      vertex 114.441 0.255556 0
      vertex 116.25 1.00481 5
      vertex 114.441 0.255556 5
    endloop
  endfacet
  facet normal 0.382658 -0.92389 0
    outer loop
      vertex 116.25 1.00481 5
      vertex 114.441 0.255556 0
      vertex 116.25 1.00481 0
    endloop
  endfacet
  facet normal 0.39334 -0.883463 0.254514
    outer loop
      vertex 55 -13.3013 50
      vertex 45.4509 -17.5528 50
      vertex 116.25 1.00481 5
    endloop
  endfacet
  facet normal 0.923925 -0.382573 0
    outer loop
      vertex 118.995 3.75 5
      vertex 119.744 5.55886 0
      vertex 119.744 5.55886 5
    endloop
  endfacet
  facet normal 0.923925 -0.382573 0
    outer loop
      vertex 119.744 5.55886 0
      vertex 118.995 3.75 5
      vertex 118.995 3.75 0
    endloop
  endfacet
  facet normal -0.587787 -0.809016 0
    outer loop
      vertex -3.45653 -7.15724 40
      vertex 5 -13.3013 50
      vertex -3.45653 -7.15724 50
    endloop
  endfacet
  facet normal -0.587787 -0.809016 -0
    outer loop
      vertex 5 -13.3013 50
      vertex -3.45653 -7.15724 40
      vertex 5 -13.3013 40
    endloop
  endfacet
  facet normal -0.620314 0.558535 0.550681
    outer loop
      vertex 2.1967 117.803 5
      vertex -10.4508 59.3893 50
      vertex -3.45653 67.1572 50
    endloop
  endfacet
  facet normal 0 1 -0
    outer loop
      vertex 112.5 120 0
      vertex 7.5 120 5
      vertex 112.5 120 5
    endloop
  endfacet
  facet normal 0 1 0
    outer loop
      vertex 7.5 120 5
      vertex 112.5 120 0
      vertex 7.5 120 0
    endloop
  endfacet
  facet normal -0 0 1
    outer loop
      vertex 77.3168 32.6535 50
      vertex 80 30 50
      vertex 78.9074 40.3956 50
    endloop
  endfacet
  facet normal 0 0 1
    outer loop
      vertex 80 30 50
      vertex 77.3168 32.6535 50
      vertex 77.3168 31.8218 50
    endloop
  endfacet
  facet normal 0 0 1
    outer loop
      vertex 78.9074 40.3956 50
      vertex 76.3421 41.9272 50
      vertex 77.3168 32.6535 50
    endloop
  endfacet
  facet normal 0 0 1
    outer loop
      vertex 78.9074 40.3956 50
      vertex 76.3401 41.9425 50
      vertex 76.3421 41.9272 50
    endloop
  endfacet
  facet normal 0 0 1
    outer loop
      vertex 75.6773 50.3368 50
      vertex 76.3401 41.9425 50
      vertex 78.9074 40.3956 50
    endloop
  endfacet
  facet normal 0 0 1
    outer loop
      vertex 75.6773 50.3368 50
      vertex 73.4586 50.8109 50
      vertex 76.3401 41.9425 50
    endloop
  endfacet
  facet normal 0 0 1
    outer loop
      vertex 75.6773 50.3368 50
      vertex 73.4527 50.8252 50
      vertex 73.4586 50.8109 50
    endloop
  endfacet
  facet normal 0 0 1
    outer loop
      vertex 70.4509 59.3893 50
      vertex 73.4527 50.8252 50
      vertex 75.6773 50.3368 50
    endloop
  endfacet
  facet normal 0 0 1
    outer loop
      vertex 70.4509 59.3893 50
      vertex 68.7903 58.9007 50
      vertex 73.4527 50.8252 50
    endloop
  endfacet
  facet normal 0 0 1
    outer loop
      vertex 70.4509 59.3893 50
      vertex 68.7808 58.913 50
      vertex 68.7903 58.9007 50
    endloop
  endfacet
  facet normal 0 0 1
    outer loop
      vertex 63.4565 67.1572 50
      vertex 68.7808 58.913 50
      vertex 70.4509 59.3893 50
    endloop
  endfacet
  facet normal 0 0 1
    outer loop
      vertex 63.4565 67.1572 50
      vertex 62.5413 65.8427 50
      vertex 68.7808 58.913 50
    endloop
  endfacet
  facet normal 0 0 1
    outer loop
      vertex 63.4565 67.1572 50
      vertex 62.529 65.8521 50
      vertex 62.5413 65.8427 50
    endloop
  endfacet
  facet normal -0 0 1
    outer loop
      vertex 54.9851 71.3331 50
      vertex 63.4565 67.1572 50
      vertex 55 73.3013 50
    endloop
  endfacet
  facet normal 0 0 1
    outer loop
      vertex 63.4565 67.1572 50
      vertex 54.9851 71.3331 50
      vertex 62.529 65.8521 50
    endloop
  endfacet
  facet normal 0 0 1
    outer loop
      vertex 55 73.3013 50
      vertex 46.4665 75.1258 50
      vertex 54.9851 71.3331 50
    endloop
  endfacet
  facet normal 0 0 1
    outer loop
      vertex 45.4509 77.5528 50
      vertex 46.4665 75.1258 50
      vertex 55 73.3013 50
    endloop
  endfacet
  facet normal 0 0 1
    outer loop
      vertex 46.4665 75.1258 50
      vertex 45.4509 77.5528 50
      vertex 46.4522 75.1317 50
    endloop
  endfacet
  facet normal 0 0 1
    outer loop
      vertex 45.4509 77.5528 50
      vertex 37.3312 77.0705 50
      vertex 46.4522 75.1317 50
    endloop
  endfacet
  facet normal 0 0 1
    outer loop
      vertex 35.2264 79.7261 50
      vertex 37.3312 77.0705 50
      vertex 45.4509 77.5528 50
    endloop
  endfacet
  facet normal 0 0 1
    outer loop
      vertex 37.3312 77.0705 50
      vertex 35.2264 79.7261 50
      vertex 37.3158 77.0725 50
    endloop
  endfacet
  facet normal 0 0 1
    outer loop
      vertex 35.2264 79.7261 50
      vertex 27.1594 77.0725 50
      vertex 37.3158 77.0725 50
    endloop
  endfacet
  facet normal -0 0 1
    outer loop
      vertex 24.7736 79.7261 50
      vertex 27.1594 77.0725 50
      vertex 35.2264 79.7261 50
    endloop
  endfacet
  facet normal 0 0 1
    outer loop
      vertex 27.1594 77.0725 50
      vertex 24.7736 79.7261 50
      vertex 27.144 77.0705 50
    endloop
  endfacet
  facet normal 0 0 1
    outer loop
      vertex 24.7736 79.7261 50
      vertex 18.023 75.1317 50
      vertex 27.144 77.0705 50
    endloop
  endfacet
  facet normal -0 0 1
    outer loop
      vertex 14.5491 77.5528 50
      vertex 18.023 75.1317 50
      vertex 24.7736 79.7261 50
    endloop
  endfacet
  facet normal 0 0 1
    outer loop
      vertex 18.023 75.1317 50
      vertex 14.5491 77.5528 50
      vertex 18.0087 75.1258 50
    endloop
  endfacet
  facet normal 0 0 1
    outer loop
      vertex 14.5491 77.5528 50
      vertex 9.4901 71.3331 50
      vertex 18.0087 75.1258 50
    endloop
  endfacet
  facet normal -0 0 1
    outer loop
      vertex 5 73.3013 50
      vertex 9.4901 71.3331 50
      vertex 14.5491 77.5528 50
    endloop
  endfacet
  facet normal 0 0 1
    outer loop
      vertex 5 73.3013 50
      vertex 1.9462 65.8521 50
      vertex 9.4901 71.3331 50
    endloop
  endfacet
  facet normal -0 0 1
    outer loop
      vertex -3.45653 67.1572 50
      vertex 1.9462 65.8521 50
      vertex 5 73.3013 50
    endloop
  endfacet
  facet normal 0 0 1
    outer loop
      vertex 1.9462 65.8521 50
      vertex -3.45653 67.1572 50
      vertex 1.9339 65.8427 50
    endloop
  endfacet
  facet normal 0 0 1
    outer loop
      vertex -3.45653 67.1572 50
      vertex -4.30559 58.913 50
      vertex 1.9339 65.8427 50
    endloop
  endfacet
  facet normal -0 0 1
    outer loop
      vertex -10.4508 59.3893 50
      vertex -4.30559 58.913 50
      vertex -3.45653 67.1572 50
    endloop
  endfacet
  facet normal 0 0 1
    outer loop
      vertex -4.30559 58.913 50
      vertex -10.4508 59.3893 50
      vertex -4.31503 58.9007 50
    endloop
  endfacet
  facet normal 0 0 1
    outer loop
      vertex -4.31503 58.9007 50
      vertex -10.4508 59.3893 50
      vertex -8.97741 50.8252 50
    endloop
  endfacet
  facet normal 0 0 1
    outer loop
      vertex -15.6773 50.3368 50
      vertex -8.97741 50.8252 50
      vertex -10.4508 59.3893 50
    endloop
  endfacet
  facet normal 0 0 1
    outer loop
      vertex -8.97741 50.8252 50
      vertex -15.6773 50.3368 50
      vertex -8.98334 50.8109 50
    endloop
  endfacet
  facet normal 0 0 1
    outer loop
      vertex -8.98334 50.8109 50
      vertex -15.6773 50.3368 50
      vertex -11.8649 41.9425 50
    endloop
  endfacet
  facet normal 0 0 1
    outer loop
      vertex -18.9074 40.3956 50
      vertex -11.8649 41.9425 50
      vertex -15.6773 50.3368 50
    endloop
  endfacet
  facet normal 0 0 1
    outer loop
      vertex -11.8649 41.9425 50
      vertex -18.9074 40.3956 50
      vertex -12.0166 41.356 50
    endloop
  endfacet
  facet normal 0 0 1
    outer loop
      vertex 76.3421 22.5481 50
      vertex 80 30 50
      vertex 77.3168 31.8218 50
    endloop
  endfacet
  facet normal 0 0 1
    outer loop
      vertex 80 30 50
      vertex 76.3421 22.5481 50
      vertex 78.9074 19.6044 50
    endloop
  endfacet
  facet normal -0 0 1
    outer loop
      vertex 76.3401 22.5327 50
      vertex 78.9074 19.6044 50
      vertex 76.3421 22.5481 50
    endloop
  endfacet
  facet normal 0 0 1
    outer loop
      vertex 73.4586 13.6643 50
      vertex 78.9074 19.6044 50
      vertex 76.3401 22.5327 50
    endloop
  endfacet
  facet normal 0 0 1
    outer loop
      vertex 78.9074 19.6044 50
      vertex 73.4586 13.6643 50
      vertex 75.6773 9.66317 50
    endloop
  endfacet
  facet normal -0 0 1
    outer loop
      vertex 73.4527 13.65 50
      vertex 75.6773 9.66317 50
      vertex 73.4586 13.6643 50
    endloop
  endfacet
  facet normal 0 0 1
    outer loop
      vertex 68.7903 5.57453 50
      vertex 75.6773 9.66317 50
      vertex 73.4527 13.65 50
    endloop
  endfacet
  facet normal 0 0 1
    outer loop
      vertex 75.6773 9.66317 50
      vertex 68.7903 5.57453 50
      vertex 70.4509 0.610737 50
    endloop
  endfacet
  facet normal -0 0 1
    outer loop
      vertex 68.7808 5.56223 50
      vertex 70.4509 0.610737 50
      vertex 68.7903 5.57453 50
    endloop
  endfacet
  facet normal 0 0 1
    outer loop
      vertex 62.5413 -1.36743 50
      vertex 70.4509 0.610737 50
      vertex 68.7808 5.56223 50
    endloop
  endfacet
  facet normal 0 0 1
    outer loop
      vertex 70.4509 0.610737 50
      vertex 62.5413 -1.36743 50
      vertex 63.4565 -7.15724 50
    endloop
  endfacet
  facet normal -0 0 1
    outer loop
      vertex 62.529 -1.37687 50
      vertex 63.4565 -7.15724 50
      vertex 62.5413 -1.36743 50
    endloop
  endfacet
  facet normal -0 0 1
    outer loop
      vertex 54.9851 -6.85783 50
      vertex 63.4565 -7.15724 50
      vertex 62.529 -1.37687 50
    endloop
  endfacet
  facet normal 0 0 1
    outer loop
      vertex 63.4565 -7.15724 50
      vertex 54.9851 -6.85783 50
      vertex 55 -13.3013 50
    endloop
  endfacet
  facet normal -0 0 1
    outer loop
      vertex 46.4665 -10.6506 50
      vertex 55 -13.3013 50
      vertex 54.9851 -6.85783 50
    endloop
  endfacet
  facet normal 0 0 1
    outer loop
      vertex 45.4509 -17.5528 50
      vertex 46.4665 -10.6506 50
      vertex 46.4522 -10.6565 50
    endloop
  endfacet
  facet normal 0 0 1
    outer loop
      vertex 45.4509 -17.5528 50
      vertex 46.4522 -10.6565 50
      vertex 45.9058 -10.7975 50
    endloop
  endfacet
  facet normal 0 0 1
    outer loop
      vertex 46.4665 -10.6506 50
      vertex 45.4509 -17.5528 50
      vertex 55 -13.3013 50
    endloop
  endfacet
  facet normal -0 0 1
    outer loop
      vertex 36.7038 -12.7535 50
      vertex 45.4509 -17.5528 50
      vertex 45.9058 -10.7975 50
    endloop
  endfacet
  facet normal 0 0 1
    outer loop
      vertex 36.7038 -12.7535 50
      vertex 35.2264 -19.7261 50
      vertex 45.4509 -17.5528 50
    endloop
  endfacet
  facet normal -0 0 1
    outer loop
      vertex 27.2962 -12.7535 50
      vertex 35.2264 -19.7261 50
      vertex 36.7038 -12.7535 50
    endloop
  endfacet
  facet normal 0 0 1
    outer loop
      vertex 27.2962 -12.7535 50
      vertex 24.7736 -19.7261 50
      vertex 35.2264 -19.7261 50
    endloop
  endfacet
  facet normal 0 0 1
    outer loop
      vertex 18.0942 -10.7975 50
      vertex 24.7736 -19.7261 50
      vertex 27.2962 -12.7535 50
    endloop
  endfacet
  facet normal 0 0 1
    outer loop
      vertex 18.0942 -10.7975 50
      vertex 14.5491 -17.5528 50
      vertex 24.7736 -19.7261 50
    endloop
  endfacet
  facet normal 0 0 1
    outer loop
      vertex 9.5 -6.97114 50
      vertex 14.5491 -17.5528 50
      vertex 18.0942 -10.7975 50
    endloop
  endfacet
  facet normal 0 0 1
    outer loop
      vertex 9.5 -6.97114 50
      vertex 5 -13.3013 50
      vertex 14.5491 -17.5528 50
    endloop
  endfacet
  facet normal 0 0 1
    outer loop
      vertex 1.88912 -1.44152 50
      vertex 5 -13.3013 50
      vertex 9.5 -6.97114 50
    endloop
  endfacet
  facet normal 0 0 1
    outer loop
      vertex 1.88912 -1.44152 50
      vertex -3.45653 -7.15724 50
      vertex 5 -13.3013 50
    endloop
  endfacet
  facet normal -0 0 1
    outer loop
      vertex -10.4508 0.610737 50
      vertex 1.88912 -1.44152 50
      vertex -4.40576 5.54966 50
    endloop
  endfacet
  facet normal -0 0 1
    outer loop
      vertex -15.6773 9.66317 50
      vertex -4.40576 5.54966 50
      vertex -9.10954 13.6969 50
    endloop
  endfacet
  facet normal 0 0 1
    outer loop
      vertex 1.88912 -1.44152 50
      vertex -10.4508 0.610737 50
      vertex -3.45653 -7.15724 50
    endloop
  endfacet
  facet normal -0 0 1
    outer loop
      vertex -18.9074 19.6044 50
      vertex -9.10954 13.6969 50
      vertex -12.0166 22.644 50
    endloop
  endfacet
  facet normal -0 0 1
    outer loop
      vertex -20 30 50
      vertex -12.0166 22.644 50
      vertex -13 32 50
    endloop
  endfacet
  facet normal 0 0 1
    outer loop
      vertex -12.0166 41.356 50
      vertex -18.9074 40.3956 50
      vertex -13 32 50
    endloop
  endfacet
  facet normal 0 0 1
    outer loop
      vertex -4.40576 5.54966 50
      vertex -15.6773 9.66317 50
      vertex -10.4508 0.610737 50
    endloop
  endfacet
  facet normal 0 0 1
    outer loop
      vertex -20 30 50
      vertex -13 32 50
      vertex -18.9074 40.3956 50
    endloop
  endfacet
  facet normal 0 0 1
    outer loop
      vertex -9.10954 13.6969 50
      vertex -18.9074 19.6044 50
      vertex -15.6773 9.66317 50
    endloop
  endfacet
  facet normal 0 0 1
    outer loop
      vertex -12.0166 22.644 50
      vertex -20 30 50
      vertex -18.9074 19.6044 50
    endloop
  endfacet
  facet normal -0.450558 0.620133 0.642209
    outer loop
      vertex 3.75 118.995 5
      vertex -3.45653 67.1572 50
      vertex 5 73.3013 50
    endloop
  endfacet
  facet normal 0.216905 0.523874 0.823716
    outer loop
      vertex 114.441 119.744 5
      vertex 45.4509 77.5528 50
      vertex 116.25 118.995 5
    endloop
  endfacet
  facet normal 0.923936 0.382547 0
    outer loop
      vertex 119.744 114.441 5
      vertex 118.995 116.25 0
      vertex 118.995 116.25 5
    endloop
  endfacet
  facet normal 0.923936 0.382547 0
    outer loop
      vertex 118.995 116.25 0
      vertex 119.744 114.441 5
      vertex 119.744 114.441 0
    endloop
  endfacet
  facet normal -0.957271 0.100611 -0.271125
    outer loop
      vertex 0 112.5 0
      vertex -20 30 40
      vertex -18.9074 40.3956 40
    endloop
  endfacet
  facet normal -0.83236 -0.48057 -0.276096
    outer loop
      vertex -10.4508 0.610737 40
      vertex -15.6773 9.66317 40
      vertex 1.00481 3.75 0
    endloop
  endfacet
  facet normal 0.524616 0.217212 0.823163
    outer loop
      vertex 118.995 116.25 5
      vertex 75.6773 50.3368 50
      vertex 119.744 114.441 5
    endloop
  endfacet
  facet normal -0.994522 0.104526 0
    outer loop
      vertex -20 30 40
      vertex -18.9074 40.3956 50
      vertex -18.9074 40.3956 40
    endloop
  endfacet
  facet normal -0.994522 0.104526 0
    outer loop
      vertex -18.9074 40.3956 50
      vertex -20 30 40
      vertex -20 30 50
    endloop
  endfacet
  facet normal 1 -0 0
    outer loop
      vertex 120 7.5 5
      vertex 120 112.5 0
      vertex 120 112.5 5
    endloop
  endfacet
  facet normal 1 0 0
    outer loop
      vertex 120 112.5 0
      vertex 120 7.5 5
      vertex 120 7.5 0
    endloop
  endfacet
  facet normal 0.991415 -0.130749 0
    outer loop
      vertex 119.744 5.55886 5
      vertex 120 7.5 0
      vertex 120 7.5 5
    endloop
  endfacet
  facet normal 0.991415 -0.130749 0
    outer loop
      vertex 120 7.5 0
      vertex 119.744 5.55886 5
      vertex 119.744 5.55886 0
    endloop
  endfacet
  facet normal 0.466092 0.269095 0.842821
    outer loop
      vertex 118.995 116.25 5
      vertex 70.4509 59.3893 50
      vertex 75.6773 50.3368 50
    endloop
  endfacet
  facet normal 0.722193 -0.0952437 0.685103
    outer loop
      vertex 120 7.5 5
      vertex 78.9074 19.6044 50
      vertex 119.744 5.55886 5
    endloop
  endfacet
  facet normal 0.516582 -0.711008 0.477086
    outer loop
      vertex 63.4565 -7.15724 50
      vertex 55 -13.3013 50
      vertex 116.25 1.00481 5
    endloop
  endfacet
  facet normal -0.968105 0.250546 0
    outer loop
      vertex -18.9074 40.3956 40
      vertex 0.255556 114.441 5
      vertex 0.255556 114.441 0
    endloop
  endfacet
  facet normal -0.968105 0.250546 0
    outer loop
      vertex 0.255556 114.441 5
      vertex -18.9074 40.3956 40
      vertex -18.9074 40.3956 50
    endloop
  endfacet
  facet normal -0.130749 0.991415 0
    outer loop
      vertex 7.5 120 0
      vertex 5.55886 119.744 5
      vertex 7.5 120 5
    endloop
  endfacet
  facet normal -0.130749 0.991415 0
    outer loop
      vertex 5.55886 119.744 5
      vertex 7.5 120 0
      vertex 5.55886 119.744 0
    endloop
  endfacet
  facet normal 0.560306 0.182055 0.80803
    outer loop
      vertex 119.744 114.441 5
      vertex 75.6773 50.3368 50
      vertex 78.9074 40.3956 50
    endloop
  endfacet
  facet normal 0.415732 0.319094 0.851672
    outer loop
      vertex 117.803 117.803 5
      vertex 70.4509 59.3893 50
      vertex 118.995 116.25 5
    endloop
  endfacet
  facet normal 0.227582 0.511162 0.828806
    outer loop
      vertex 116.25 118.995 5
      vertex 45.4509 77.5528 50
      vertex 55 73.3013 50
    endloop
  endfacet
  facet normal 0.385071 0.346727 0.855278
    outer loop
      vertex 117.803 117.803 5
      vertex 63.4565 67.1572 50
      vertex 70.4509 59.3893 50
    endloop
  endfacet
  facet normal -0.951057 -0.309017 0
    outer loop
      vertex -15.6773 9.66317 40
      vertex -18.9074 19.6044 50
      vertex -18.9074 19.6044 40
    endloop
  endfacet
  facet normal -0.951057 -0.309017 0
    outer loop
      vertex -18.9074 19.6044 50
      vertex -15.6773 9.66317 40
      vertex -15.6773 9.66317 50
    endloop
  endfacet
  facet normal -0.363912 -0.878561 -0.309352
    outer loop
      vertex 14.5491 -17.5528 40
      vertex 3.75 1.00481 0
      vertex 5.55886 0.255556 0
    endloop
  endfacet
  facet normal -0.0953872 0.723281 0.683934
    outer loop
      vertex 7.5 120 5
      vertex 5.55886 119.744 5
      vertex 24.7736 79.7261 50
    endloop
  endfacet
  facet normal 0.64392 -0.371765 0.668699
    outer loop
      vertex 75.6773 9.66317 50
      vertex 70.4509 0.610737 50
      vertex 118.995 3.75 5
    endloop
  endfacet
  facet normal 0.528853 -0.689082 0.49546
    outer loop
      vertex 117.803 2.1967 5
      vertex 63.4565 -7.15724 50
      vertex 116.25 1.00481 5
    endloop
  endfacet
  facet normal -0.911093 -0.119948 -0.394363
    outer loop
      vertex 0.255556 5.55886 0
      vertex -18.9074 19.6044 40
      vertex 0 7.5 0
    endloop
  endfacet
  facet normal -0.406734 -0.913547 0
    outer loop
      vertex 5 -13.3013 40
      vertex 14.5491 -17.5528 50
      vertex 5 -13.3013 50
    endloop
  endfacet
  facet normal -0.406734 -0.913547 -0
    outer loop
      vertex 14.5491 -17.5528 50
      vertex 5 -13.3013 40
      vertex 14.5491 -17.5528 40
    endloop
  endfacet
  facet normal -0.4716 0.614544 0.6324
    outer loop
      vertex 2.1967 117.803 5
      vertex -3.45653 67.1572 50
      vertex 3.75 118.995 5
    endloop
  endfacet
  facet normal 0.747409 0 0.664364
    outer loop
      vertex 120 112.5 5
      vertex 80 30 50
      vertex 120 7.5 5
    endloop
  endfacet
  facet normal 0.725982 -0.0763022 0.683468
    outer loop
      vertex 80 30 50
      vertex 78.9074 19.6044 50
      vertex 120 7.5 5
    endloop
  endfacet
  facet normal 0.608871 0.793269 -0
    outer loop
      vertex 117.803 117.803 0
      vertex 116.25 118.995 5
      vertex 117.803 117.803 5
    endloop
  endfacet
  facet normal 0.608871 0.793269 0
    outer loop
      vertex 116.25 118.995 5
      vertex 117.803 117.803 0
      vertex 116.25 118.995 0
    endloop
  endfacet
  facet normal -0.994522 -0.104526 0
    outer loop
      vertex -18.9074 19.6044 40
      vertex -20 30 50
      vertex -20 30 40
    endloop
  endfacet
  facet normal -0.994522 -0.104526 0
    outer loop
      vertex -20 30 50
      vertex -18.9074 19.6044 40
      vertex -18.9074 19.6044 50
    endloop
  endfacet
  facet normal -0 0.745153 0.666894
    outer loop
      vertex 7.5 120 5
      vertex 35.2264 79.7261 50
      vertex 112.5 120 5
    endloop
  endfacet
  facet normal 0 0.745153 0.666894
    outer loop
      vertex 35.2264 79.7261 50
      vertex 7.5 120 5
      vertex 24.7736 79.7261 50
    endloop
  endfacet
  facet normal 0.686246 -0.222975 0.69235
    outer loop
      vertex 78.9074 19.6044 50
      vertex 75.6773 9.66317 50
      vertex 119.744 5.55886 5
    endloop
  endfacet
  facet normal 0.615459 -0.472303 0.630983
    outer loop
      vertex 118.995 3.75 5
      vertex 70.4509 0.610737 50
      vertex 117.803 2.1967 5
    endloop
  endfacet
  facet normal 0.308537 0.424658 0.851158
    outer loop
      vertex 116.25 118.995 5
      vertex 55 73.3013 50
      vertex 63.4565 67.1572 50
    endloop
  endfacet
  facet normal 0.318663 0.41517 0.852108
    outer loop
      vertex 116.25 118.995 5
      vertex 63.4565 67.1572 50
      vertex 117.803 117.803 5
    endloop
  endfacet
  facet normal 0.677153 0.0711702 0.732392
    outer loop
      vertex 120 112.5 5
      vertex 78.9074 40.3956 50
      vertex 80 30 50
    endloop
  endfacet
  facet normal -0.743147 -0.669128 0
    outer loop
      vertex -3.45653 -7.15724 40
      vertex -10.4508 0.610737 50
      vertex -10.4508 0.610737 40
    endloop
  endfacet
  facet normal -0.743147 -0.669128 0
    outer loop
      vertex -10.4508 0.610737 50
      vertex -3.45653 -7.15724 40
      vertex -3.45653 -7.15724 50
    endloop
  endfacet
  facet normal 0 -1 0
    outer loop
      vertex 24.7736 -19.7261 40
      vertex 35.2264 -19.7261 50
      vertex 24.7736 -19.7261 50
    endloop
  endfacet
  facet normal 0 -1 -0
    outer loop
      vertex 35.2264 -19.7261 50
      vertex 24.7736 -19.7261 40
      vertex 35.2264 -19.7261 40
    endloop
  endfacet
  facet normal -0.877672 -0.363544 -0.312293
    outer loop
      vertex 1.00481 3.75 0
      vertex -15.6773 9.66317 40
      vertex 0.255556 5.55886 0
    endloop
  endfacet
  facet normal 0.207913 -0.978147 0
    outer loop
      vertex 35.2264 -19.7261 40
      vertex 45.4509 -17.5528 50
      vertex 35.2264 -19.7261 50
    endloop
  endfacet
  facet normal 0.207913 -0.978147 0
    outer loop
      vertex 45.4509 -17.5528 50
      vertex 35.2264 -19.7261 40
      vertex 45.4509 -17.5528 40
    endloop
  endfacet
  facet normal 0.207301 -0.975269 -0.076655
    outer loop
      vertex 45.4509 -17.5528 40
      vertex 35.2264 -19.7261 40
      vertex 114.441 0.255556 0
    endloop
  endfacet
  facet normal 0.592116 -0.53315 0.604276
    outer loop
      vertex 70.4509 0.610737 50
      vertex 63.4565 -7.15724 50
      vertex 117.803 2.1967 5
    endloop
  endfacet
  facet normal -0.90269 0.373877 0.212993
    outer loop
      vertex 0.255556 114.441 5
      vertex -15.6773 50.3368 50
      vertex 1.00481 116.25 5
    endloop
  endfacet
  facet normal 0.991414 0.130758 0
    outer loop
      vertex 120 112.5 5
      vertex 119.744 114.441 0
      vertex 119.744 114.441 5
    endloop
  endfacet
  facet normal 0.991414 0.130758 0
    outer loop
      vertex 119.744 114.441 0
      vertex 120 112.5 5
      vertex 120 112.5 0
    endloop
  endfacet
  facet normal 0.130783 0.615282 0.777383
    outer loop
      vertex 114.441 119.744 5
      vertex 35.2264 79.7261 50
      vertex 45.4509 77.5528 50
    endloop
  endfacet
  facet normal 0.0874416 0.662985 0.743509
    outer loop
      vertex 112.5 120 5
      vertex 35.2264 79.7261 50
      vertex 114.441 119.744 5
    endloop
  endfacet
  facet normal 0 -0.89687 -0.442294
    outer loop
      vertex 7.5 0 0
      vertex 35.2264 -19.7261 40
      vertex 24.7736 -19.7261 40
    endloop
  endfacet
  facet normal 0 -0.89687 -0.442294
    outer loop
      vertex 35.2264 -19.7261 40
      vertex 7.5 0 0
      vertex 112.5 0 0
    endloop
  endfacet
  facet normal 0.793269 0.608871 0
    outer loop
      vertex 118.995 116.25 5
      vertex 117.803 117.803 0
      vertex 117.803 117.803 5
    endloop
  endfacet
  facet normal 0.793269 0.608871 0
    outer loop
      vertex 117.803 117.803 0
      vertex 118.995 116.25 5
      vertex 118.995 116.25 0
    endloop
  endfacet
  facet normal -0.800917 0.462413 0.380403
    outer loop
      vertex 1.00481 116.25 5
      vertex -15.6773 50.3368 50
      vertex -10.4508 59.3893 50
    endloop
  endfacet
  facet normal 0.127024 -0.964772 -0.23039
    outer loop
      vertex 114.441 0.255556 0
      vertex 35.2264 -19.7261 40
      vertex 112.5 0 0
    endloop
  endfacet
  facet normal -0.894427 0 -0.447214
    outer loop
      vertex 0 7.5 0
      vertex -20 30 40
      vertex 0 112.5 0
    endloop
  endfacet
  facet normal -0.119799 -0.90996 -0.397015
    outer loop
      vertex 24.7736 -19.7261 40
      vertex 5.55886 0.255556 0
      vertex 7.5 0 0
    endloop
  endfacet
  facet normal -0.946005 0.307377 0.102924
    outer loop
      vertex 0.255556 114.441 5
      vertex -18.9074 40.3956 50
      vertex -15.6773 50.3368 50
    endloop
  endfacet
  facet normal -0.278379 0.672295 0.685948
    outer loop
      vertex 5.55886 119.744 5
      vertex 3.75 118.995 5
      vertex 14.5491 77.5528 50
    endloop
  endfacet
  facet normal 0.608836 -0.793296 0
    outer loop
      vertex 116.25 1.00481 0
      vertex 117.803 2.1967 5
      vertex 116.25 1.00481 5
    endloop
  endfacet
  facet normal 0.608836 -0.793296 0
    outer loop
      vertex 117.803 2.1967 5
      vertex 116.25 1.00481 0
      vertex 117.803 2.1967 0
    endloop
  endfacet
  facet normal -0.608797 0.793326 0
    outer loop
      vertex 3.75 118.995 0
      vertex 2.1967 117.803 5
      vertex 3.75 118.995 5
    endloop
  endfacet
  facet normal -0.608797 0.793326 0
    outer loop
      vertex 2.1967 117.803 5
      vertex 3.75 118.995 0
      vertex 2.1967 117.803 0
    endloop
  endfacet
  facet normal -0.793296 0.608836 0
    outer loop
      vertex 1.00481 116.25 0
      vertex 2.1967 117.803 5
      vertex 2.1967 117.803 0
    endloop
  endfacet
  facet normal -0.793296 0.608836 0
    outer loop
      vertex 2.1967 117.803 5
      vertex 1.00481 116.25 0
      vertex 1.00481 116.25 5
    endloop
  endfacet
  facet normal -0.193785 -0.911681 -0.362334
    outer loop
      vertex 14.5491 -17.5528 40
      vertex 5.55886 0.255556 0
      vertex 24.7736 -19.7261 40
    endloop
  endfacet
  facet normal -0.587485 -0.765625 -0.26207
    outer loop
      vertex 3.75 1.00481 0
      vertex -3.45653 -7.15724 40
      vertex 2.1967 2.1967 0
    endloop
  endfacet
  facet normal -0.866022 -0.500005 0
    outer loop
      vertex -10.4508 0.610737 40
      vertex -15.6773 9.66317 50
      vertex -15.6773 9.66317 40
    endloop
  endfacet
  facet normal -0.866022 -0.500005 0
    outer loop
      vertex -15.6773 9.66317 50
      vertex -10.4508 0.610737 40
      vertex -10.4508 0.610737 50
    endloop
  endfacet
  facet normal -0.910816 -0.0957287 -0.40156
    outer loop
      vertex -18.9074 19.6044 40
      vertex -20 30 40
      vertex 0 7.5 0
    endloop
  endfacet
  facet normal 0.793326 -0.608797 0
    outer loop
      vertex 117.803 2.1967 5
      vertex 118.995 3.75 0
      vertex 118.995 3.75 5
    endloop
  endfacet
  facet normal 0.793326 -0.608797 0
    outer loop
      vertex 118.995 3.75 0
      vertex 117.803 2.1967 5
      vertex 117.803 2.1967 0
    endloop
  endfacet
  facet normal 0.373639 -0.902115 0.215827
    outer loop
      vertex 116.25 1.00481 5
      vertex 45.4509 -17.5528 50
      vertex 114.441 0.255556 5
    endloop
  endfacet
  facet normal 0.249937 -0.968262 0
    outer loop
      vertex 45.4509 -17.5528 40
      vertex 114.441 0.255556 5
      vertex 45.4509 -17.5528 50
    endloop
  endfacet
  facet normal 0.249937 -0.968262 0
    outer loop
      vertex 114.441 0.255556 5
      vertex 45.4509 -17.5528 40
      vertex 114.441 0.255556 0
    endloop
  endfacet
  facet normal 0.661991 0.0873105 0.744409
    outer loop
      vertex 119.744 114.441 5
      vertex 78.9074 40.3956 50
      vertex 120 112.5 5
    endloop
  endfacet
  facet normal -0.965508 0.127121 -0.227232
    outer loop
      vertex 0 112.5 0
      vertex -18.9074 40.3956 40
      vertex 0.255556 114.441 0
    endloop
  endfacet
  facet normal -0.296516 0.665992 0.684495
    outer loop
      vertex 14.5491 77.5528 50
      vertex 3.75 118.995 5
      vertex 5 73.3013 50
    endloop
  endfacet
  facet normal -0.150088 0.706106 0.692017
    outer loop
      vertex 24.7736 79.7261 50
      vertex 5.55886 119.744 5
      vertex 14.5491 77.5528 50
    endloop
  endfacet
  facet normal -0.689981 0.529543 0.493468
    outer loop
      vertex 1.00481 116.25 5
      vertex -10.4508 59.3893 50
      vertex 2.1967 117.803 5
    endloop
  endfacet
  facet normal -0.764958 -0.586974 -0.265143
    outer loop
      vertex 2.1967 2.1967 0
      vertex -10.4508 0.610737 40
      vertex 1.00481 3.75 0
    endloop
  endfacet
  facet normal -0.92389 0.382658 0
    outer loop
      vertex 0.255556 114.441 0
      vertex 1.00481 116.25 5
      vertex 1.00481 116.25 0
    endloop
  endfacet
  facet normal -0.92389 0.382658 0
    outer loop
      vertex 1.00481 116.25 5
      vertex 0.255556 114.441 0
      vertex 0.255556 114.441 5
    endloop
  endfacet
  facet normal -0.388051 -0.871583 -0.299598
    outer loop
      vertex 5 -13.3013 40
      vertex 3.75 1.00481 0
      vertex 14.5491 -17.5528 40
    endloop
  endfacet
  facet normal -0.567327 -0.780855 -0.261546
    outer loop
      vertex 5 -13.3013 40
      vertex -3.45653 -7.15724 40
      vertex 3.75 1.00481 0
    endloop
  endfacet
  facet normal 0.382547 0.923936 -0
    outer loop
      vertex 116.25 118.995 0
      vertex 114.441 119.744 5
      vertex 116.25 118.995 5
    endloop
  endfacet
  facet normal 0.382547 0.923936 0
    outer loop
      vertex 114.441 119.744 5
      vertex 116.25 118.995 0
      vertex 114.441 119.744 0
    endloop
  endfacet
  facet normal 0.130758 0.991414 -0
    outer loop
      vertex 114.441 119.744 0
      vertex 112.5 120 5
      vertex 114.441 119.744 5
    endloop
  endfacet
  facet normal 0.130758 0.991414 0
    outer loop
      vertex 112.5 120 5
      vertex 114.441 119.744 0
      vertex 112.5 120 0
    endloop
  endfacet
  facet normal -0.382573 0.923925 0
    outer loop
      vertex 5.55886 119.744 0
      vertex 3.75 118.995 5
      vertex 5.55886 119.744 5
    endloop
  endfacet
  facet normal -0.382573 0.923925 0
    outer loop
      vertex 3.75 118.995 5
      vertex 5.55886 119.744 0
      vertex 3.75 118.995 0
    endloop
  endfacet
  facet normal -0.71897 -0.647359 -0.252997
    outer loop
      vertex -3.45653 -7.15724 40
      vertex -10.4508 0.610737 40
      vertex 2.1967 2.1967 0
    endloop
  endfacet
  facet normal 0 0 -1
    outer loop
      vertex 112.096 8.375 0
      vertex 120 7.5 0
      vertex 119.744 5.55886 0
    endloop
  endfacet
  facet normal 0 0 -1
    outer loop
      vertex 113 106.25 0
      vertex 120 7.5 0
      vertex 113 11.75 0
    endloop
  endfacet
  facet normal 0 0 -1
    outer loop
      vertex 112.096 8.375 0
      vertex 119.744 5.55886 0
      vertex 118.995 3.75 0
    endloop
  endfacet
  facet normal 0 0 -1
    outer loop
      vertex 120 7.5 0
      vertex 113 106.25 0
      vertex 120 112.5 0
    endloop
  endfacet
  facet normal 0 0 -1
    outer loop
      vertex 112.096 8.375 0
      vertex 118.995 3.75 0
      vertex 117.803 2.1967 0
    endloop
  endfacet
  facet normal 0 0 -1
    outer loop
      vertex 112.77 107.997 0
      vertex 120 112.5 0
      vertex 113 106.25 0
    endloop
  endfacet
  facet normal 0 0 -1
    outer loop
      vertex 111.023 6.97703 0
      vertex 117.803 2.1967 0
      vertex 116.25 1.00481 0
    endloop
  endfacet
  facet normal 0 0 -1
    outer loop
      vertex 112.096 109.625 0
      vertex 120 112.5 0
      vertex 112.77 107.997 0
    endloop
  endfacet
  facet normal 0 0 -1
    outer loop
      vertex 111.023 6.97703 0
      vertex 116.25 1.00481 0
      vertex 114.441 0.255556 0
    endloop
  endfacet
  facet normal -0 0 -1
    outer loop
      vertex 120 112.5 0
      vertex 112.096 109.625 0
      vertex 119.744 114.441 0
    endloop
  endfacet
  facet normal 0 0 -1
    outer loop
      vertex 111.023 111.023 0
      vertex 119.744 114.441 0
      vertex 112.096 109.625 0
    endloop
  endfacet
  facet normal 0 0 -1
    outer loop
      vertex 120 7.5 0
      vertex 112.77 10.003 0
      vertex 113 11.75 0
    endloop
  endfacet
  facet normal 0 0 -1
    outer loop
      vertex 111.023 6.97703 0
      vertex 114.441 0.255556 0
      vertex 112.5 0 0
    endloop
  endfacet
  facet normal 0 0 -1
    outer loop
      vertex 120 7.5 0
      vertex 112.096 8.375 0
      vertex 112.77 10.003 0
    endloop
  endfacet
  facet normal 0 0 -1
    outer loop
      vertex 117.803 2.1967 0
      vertex 111.023 6.97703 0
      vertex 112.096 8.375 0
    endloop
  endfacet
  facet normal 0 0 -1
    outer loop
      vertex 112.5 0 0
      vertex 109.625 5.90433 0
      vertex 111.023 6.97703 0
    endloop
  endfacet
  facet normal 0 0 -1
    outer loop
      vertex 112.5 0 0
      vertex 107.997 5.23 0
      vertex 109.625 5.90433 0
    endloop
  endfacet
  facet normal 0 0 -1
    outer loop
      vertex 112.5 0 0
      vertex 107.843 5.19033 0
      vertex 107.997 5.23 0
    endloop
  endfacet
  facet normal 0 0 -1
    outer loop
      vertex 112.5 0 0
      vertex 107.821 5.18549 0
      vertex 107.843 5.19033 0
    endloop
  endfacet
  facet normal 0 0 -1
    outer loop
      vertex 112.5 0 0
      vertex 106.078 4.95606 0
      vertex 107.821 5.18549 0
    endloop
  endfacet
  facet normal 0 0 -1
    outer loop
      vertex 7.5 0 0
      vertex 106.078 4.95606 0
      vertex 112.5 0 0
    endloop
  endfacet
  facet normal -0 0 -1
    outer loop
      vertex 106.078 4.95606 0
      vertex 7.5 0 0
      vertex 11.7885 4.95606 0
    endloop
  endfacet
  facet normal 0 0 -1
    outer loop
      vertex 7.5 0 0
      vertex 10.0458 5.18549 0
      vertex 11.7885 4.95606 0
    endloop
  endfacet
  facet normal 0 0 -1
    outer loop
      vertex 7.5 0 0
      vertex 10.023 5.19033 0
      vertex 10.0458 5.18549 0
    endloop
  endfacet
  facet normal 0 0 -1
    outer loop
      vertex 7.5 0 0
      vertex 8.39906 5.86299 0
      vertex 10.023 5.19033 0
    endloop
  endfacet
  facet normal 0 0 -1
    outer loop
      vertex 7.5 0 0
      vertex 8.37778 5.87246 0
      vertex 8.39906 5.86299 0
    endloop
  endfacet
  facet normal 0 0 -1
    outer loop
      vertex 5.55886 0.255556 0
      vertex 8.37778 5.87246 0
      vertex 7.5 0 0
    endloop
  endfacet
  facet normal -0 0 -1
    outer loop
      vertex 8.37778 5.87246 0
      vertex 5.55886 0.255556 0
      vertex 8.35895 5.88615 0
    endloop
  endfacet
  facet normal 0 0 -1
    outer loop
      vertex 3.75 1.00481 0
      vertex 8.35895 5.88615 0
      vertex 5.55886 0.255556 0
    endloop
  endfacet
  facet normal -0 0 -1
    outer loop
      vertex 8.35895 5.88615 0
      vertex 3.75 1.00481 0
      vertex 6.96443 6.95619 0
    endloop
  endfacet
  facet normal 0 0 -1
    outer loop
      vertex 2.1967 2.1967 0
      vertex 6.96443 6.95619 0
      vertex 3.75 1.00481 0
    endloop
  endfacet
  facet normal -0 0 -1
    outer loop
      vertex 6.96443 6.95619 0
      vertex 2.1967 2.1967 0
      vertex 6.94885 6.9735 0
    endloop
  endfacet
  facet normal 0 0 -1
    outer loop
      vertex 1.00481 3.75 0
      vertex 6.94885 6.9735 0
      vertex 2.1967 2.1967 0
    endloop
  endfacet
  facet normal -0 0 -1
    outer loop
      vertex 6.94885 6.9735 0
      vertex 1.00481 3.75 0
      vertex 5.87881 8.36801 0
    endloop
  endfacet
  facet normal 0 0 -1
    outer loop
      vertex 0.255556 5.55886 0
      vertex 5.87881 8.36801 0
      vertex 1.00481 3.75 0
    endloop
  endfacet
  facet normal -0 0 -1
    outer loop
      vertex 5.87881 8.36801 0
      vertex 0.255556 5.55886 0
      vertex 5.86717 8.38817 0
    endloop
  endfacet
  facet normal -0 0 -1
    outer loop
      vertex 5.86717 8.38817 0
      vertex 0 7.5 0
      vertex 5.19451 10.0121 0
    endloop
  endfacet
  facet normal 0 0 -1
    outer loop
      vertex 0 7.5 0
      vertex 5.86717 8.38817 0
      vertex 0.255556 5.55886 0
    endloop
  endfacet
  facet normal -0 0 -1
    outer loop
      vertex 119.744 114.441 0
      vertex 111.023 111.023 0
      vertex 118.995 116.25 0
    endloop
  endfacet
  facet normal -0 0 -1
    outer loop
      vertex 118.995 116.25 0
      vertex 111.023 111.023 0
      vertex 117.803 117.803 0
    endloop
  endfacet
  facet normal -0 0 -1
    outer loop
      vertex 117.803 117.803 0
      vertex 111.023 111.023 0
      vertex 116.25 118.995 0
    endloop
  endfacet
  facet normal -0 0 -1
    outer loop
      vertex 116.25 118.995 0
      vertex 111.023 111.023 0
      vertex 114.441 119.744 0
    endloop
  endfacet
  facet normal 0 0 -1
    outer loop
      vertex 109.625 112.096 0
      vertex 114.441 119.744 0
      vertex 111.023 111.023 0
    endloop
  endfacet
  facet normal -0 0 -1
    outer loop
      vertex 114.441 119.744 0
      vertex 109.625 112.096 0
      vertex 112.5 120 0
    endloop
  endfacet
  facet normal 0 0 -1
    outer loop
      vertex 107.997 112.77 0
      vertex 112.5 120 0
      vertex 109.625 112.096 0
    endloop
  endfacet
  facet normal 0 0 -1
    outer loop
      vertex 106.25 113 0
      vertex 112.5 120 0
      vertex 107.997 112.77 0
    endloop
  endfacet
  facet normal 0 0 -1
    outer loop
      vertex 7.5 120 0
      vertex 106.25 113 0
      vertex 11.75 113 0
    endloop
  endfacet
  facet normal 0 0 -1
    outer loop
      vertex 106.25 113 0
      vertex 7.5 120 0
      vertex 112.5 120 0
    endloop
  endfacet
  facet normal 0 0 -1
    outer loop
      vertex 10.003 112.77 0
      vertex 7.5 120 0
      vertex 11.75 113 0
    endloop
  endfacet
  facet normal 0 0 -1
    outer loop
      vertex 8.375 112.096 0
      vertex 7.5 120 0
      vertex 10.003 112.77 0
    endloop
  endfacet
  facet normal 0 0 -1
    outer loop
      vertex 2.1967 117.803 0
      vertex 8.375 112.096 0
      vertex 6.97703 111.023 0
    endloop
  endfacet
  facet normal 0 0 -1
    outer loop
      vertex 0 112.5 0
      vertex 6.97703 111.023 0
      vertex 5.90433 109.625 0
    endloop
  endfacet
  facet normal 0 0 -1
    outer loop
      vertex 8.375 112.096 0
      vertex 5.55886 119.744 0
      vertex 7.5 120 0
    endloop
  endfacet
  facet normal 0 0 -1
    outer loop
      vertex 0 112.5 0
      vertex 5.90433 109.625 0
      vertex 5.23 107.997 0
    endloop
  endfacet
  facet normal 0 0 -1
    outer loop
      vertex 0 112.5 0
      vertex 5.23 107.997 0
      vertex 5.18731 107.832 0
    endloop
  endfacet
  facet normal 0 0 -1
    outer loop
      vertex 0 112.5 0
      vertex 5.18731 107.832 0
      vertex 4.95788 106.089 0
    endloop
  endfacet
  facet normal 0 0 -1
    outer loop
      vertex 0 112.5 0
      vertex 4.95788 106.089 0
      vertex 4.95545 106.066 0
    endloop
  endfacet
  facet normal 0 0 -1
    outer loop
      vertex 8.375 112.096 0
      vertex 3.75 118.995 0
      vertex 5.55886 119.744 0
    endloop
  endfacet
  facet normal -0 0 -1
    outer loop
      vertex 4.95545 11.8001 0
      vertex 0 7.5 0
      vertex 4.95545 106.066 0
    endloop
  endfacet
  facet normal -0 0 -1
    outer loop
      vertex 5.19451 10.0121 0
      vertex 0 7.5 0
      vertex 5.18731 10.0343 0
    endloop
  endfacet
  facet normal 0 0 -1
    outer loop
      vertex 0 112.5 0
      vertex 4.95545 106.066 0
      vertex 0 7.5 0
    endloop
  endfacet
  facet normal -0 0 -1
    outer loop
      vertex 5.18731 10.0343 0
      vertex 0 7.5 0
      vertex 4.95788 11.777 0
    endloop
  endfacet
  facet normal 0 0 -1
    outer loop
      vertex 6.97703 111.023 0
      vertex 0 112.5 0
      vertex 0.255556 114.441 0
    endloop
  endfacet
  facet normal -0 0 -1
    outer loop
      vertex 4.95788 11.777 0
      vertex 0 7.5 0
      vertex 4.95545 11.8001 0
    endloop
  endfacet
  facet normal 0 0 -1
    outer loop
      vertex 8.375 112.096 0
      vertex 2.1967 117.803 0
      vertex 3.75 118.995 0
    endloop
  endfacet
  facet normal 0 0 -1
    outer loop
      vertex 6.97703 111.023 0
      vertex 1.00481 116.25 0
      vertex 2.1967 117.803 0
    endloop
  endfacet
  facet normal 0 0 -1
    outer loop
      vertex 6.97703 111.023 0
      vertex 0.255556 114.441 0
      vertex 1.00481 116.25 0
    endloop
  endfacet
  facet normal -0.207913 -0.978147 0
    outer loop
      vertex 14.5491 -17.5528 40
      vertex 24.7736 -19.7261 50
      vertex 14.5491 -17.5528 50
    endloop
  endfacet
  facet normal -0.207913 -0.978147 -0
    outer loop
      vertex 24.7736 -19.7261 50
      vertex 14.5491 -17.5528 40
      vertex 24.7736 -19.7261 40
    endloop
  endfacet
  facet normal -0.708644 0.292377 -0.642137
    outer loop
      vertex 112.77 10.003 4.95
      vertex 73.4527 13.65 50
      vertex 73.4586 13.6643 50
    endloop
  endfacet
  facet normal -0.708398 0.29328 -0.641996
    outer loop
      vertex 73.4527 13.65 50
      vertex 112.77 10.003 4.95
      vertex 112.096 8.375 4.95
    endloop
  endfacet
  facet normal 0.708049 -0.543294 -0.451107
    outer loop
      vertex -4.30559 58.913 50
      vertex 5.90433 109.625 4.95
      vertex 6.97703 111.023 4.95
    endloop
  endfacet
  facet normal 0.70796 -0.543345 -0.451185
    outer loop
      vertex 5.90433 109.625 4.95
      vertex -4.30559 58.913 50
      vertex -4.31503 58.9007 50
    endloop
  endfacet
  facet normal -0.395996 0.889411 -0.228332
    outer loop
      vertex 54.9851 -6.85783 50
      vertex 109.625 5.90433 4.95
      vertex 46.4665 -10.6506 50
    endloop
  endfacet
  facet normal 0.471003 -0.648276 -0.598243
    outer loop
      vertex 8.375 112.096 4.95
      vertex 9.4901 71.3331 50
      vertex 1.9462 65.8521 50
    endloop
  endfacet
  facet normal -0.923948 0.382519 0
    outer loop
      vertex 112.096 8.375 0
      vertex 112.77 10.003 4.95
      vertex 112.77 10.003 0
    endloop
  endfacet
  facet normal -0.923948 0.382519 0
    outer loop
      vertex 112.77 10.003 4.95
      vertex 112.096 8.375 0
      vertex 112.096 8.375 4.95
    endloop
  endfacet
  facet normal 0.743145 0.66913 0
    outer loop
      vertex 1.88912 -1.44152 50
      vertex -4.40576 5.54966 40.3
      vertex -4.40576 5.54966 50
    endloop
  endfacet
  facet normal 0.743145 0.66913 0
    outer loop
      vertex -4.40576 5.54966 40.3
      vertex 1.88912 -1.44152 50
      vertex 1.88912 -1.44152 40.3
    endloop
  endfacet
  facet normal -0.139773 -0.657557 -0.740325
    outer loop
      vertex 107.997 112.77 4.95
      vertex 46.4522 75.1317 50
      vertex 37.3312 77.0705 50
    endloop
  endfacet
  facet normal 0 -1 0
    outer loop
      vertex 11.75 113 0
      vertex 106.25 113 4.95
      vertex 11.75 113 4.95
    endloop
  endfacet
  facet normal 0 -1 -0
    outer loop
      vertex 106.25 113 4.95
      vertex 11.75 113 0
      vertex 106.25 113 0
    endloop
  endfacet
  facet normal 0.813129 -0.469459 -0.344136
    outer loop
      vertex 5.90433 109.625 4.95
      vertex -4.31503 58.9007 50
      vertex -8.97741 50.8252 50
    endloop
  endfacet
  facet normal -0.504447 -0.291243 -0.812841
    outer loop
      vertex 112.096 109.625 4.95
      vertex 73.4527 50.8252 50
      vertex 68.7903 58.9007 50
    endloop
  endfacet
  facet normal -0.245618 -0.551671 -0.797076
    outer loop
      vertex 109.625 112.096 4.95
      vertex 54.9851 71.3331 50
      vertex 46.4665 75.1258 50
    endloop
  endfacet
  facet normal -0.608753 0.79336 0
    outer loop
      vertex 111.023 6.97703 0
      vertex 109.625 5.90433 4.95
      vertex 111.023 6.97703 4.95
    endloop
  endfacet
  facet normal -0.608753 0.79336 0
    outer loop
      vertex 109.625 5.90433 4.95
      vertex 111.023 6.97703 0
      vertex 109.625 5.90433 0
    endloop
  endfacet
  facet normal -0.602261 -0.195685 -0.773944
    outer loop
      vertex 112.77 107.997 4.95
      vertex 76.3401 41.9425 50
      vertex 73.4586 50.8109 50
    endloop
  endfacet
  facet normal 0.770558 0.591267 0.237997
    outer loop
      vertex 6.94885 6.9735 0
      vertex 5.87881 8.36801 0
      vertex -4.40576 5.54966 40.3
    endloop
  endfacet
  facet normal 0.866027 0.499998 0
    outer loop
      vertex -4.40576 5.54966 50
      vertex -9.10954 13.6969 40.3
      vertex -9.10954 13.6969 50
    endloop
  endfacet
  facet normal 0.866027 0.499998 0
    outer loop
      vertex -9.10954 13.6969 40.3
      vertex -4.40576 5.54966 50
      vertex -4.40576 5.54966 40.3
    endloop
  endfacet
  facet normal -1 0 0
    outer loop
      vertex 113 11.75 0
      vertex 113 106.25 4.95
      vertex 113 106.25 0
    endloop
  endfacet
  facet normal -1 -0 0
    outer loop
      vertex 113 106.25 4.95
      vertex 113 11.75 0
      vertex 113 11.75 4.95
    endloop
  endfacet
  facet normal -0.991445 0.130528 0
    outer loop
      vertex 112.77 10.003 0
      vertex 113 11.75 4.95
      vertex 113 11.75 0
    endloop
  endfacet
  facet normal -0.991445 0.130528 0
    outer loop
      vertex 113 11.75 4.95
      vertex 112.77 10.003 0
      vertex 112.77 10.003 4.95
    endloop
  endfacet
  facet normal -0.760148 0.0987205 -0.642207
    outer loop
      vertex 113 11.75 4.95
      vertex 76.3401 22.5327 50
      vertex 76.3421 22.5481 50
    endloop
  endfacet
  facet normal -0.759887 0.100042 -0.642311
    outer loop
      vertex 76.3401 22.5327 50
      vertex 113 11.75 4.95
      vertex 112.77 10.003 4.95
    endloop
  endfacet
  facet normal -0.529131 0.728287 -0.435453
    outer loop
      vertex 62.529 -1.37687 50
      vertex 109.625 5.90433 4.95
      vertex 54.9851 -6.85783 50
    endloop
  endfacet
  facet normal 0.311948 -0.700652 -0.641697
    outer loop
      vertex 18.0087 75.1258 50
      vertex 9.4901 71.3331 50
      vertex 8.375 112.096 4.95
    endloop
  endfacet
  facet normal 0.100176 -0.760902 -0.641087
    outer loop
      vertex 11.75 113 4.95
      vertex 27.144 77.0705 50
      vertex 10.003 112.77 4.95
    endloop
  endfacet
  facet normal 0.0988613 -0.761232 -0.6409
    outer loop
      vertex 27.144 77.0705 50
      vertex 11.75 113 4.95
      vertex 27.1594 77.0725 50
    endloop
  endfacet
  facet normal -0.449521 -0.347191 -0.823037
    outer loop
      vertex 68.7808 58.913 50
      vertex 112.096 109.625 4.95
      vertex 68.7903 58.9007 50
    endloop
  endfacet
  facet normal -0.450767 -0.345975 -0.822867
    outer loop
      vertex 112.096 109.625 4.95
      vertex 68.7808 58.913 50
      vertex 111.023 111.023 4.95
    endloop
  endfacet
  facet normal -0.417834 -0.376217 -0.826968
    outer loop
      vertex 111.023 111.023 4.95
      vertex 68.7808 58.913 50
      vertex 62.5413 65.8427 50
    endloop
  endfacet
  facet normal -0.233845 -0.564837 -0.791376
    outer loop
      vertex 46.4665 75.1258 50
      vertex 107.997 112.77 4.95
      vertex 109.625 112.096 4.95
    endloop
  endfacet
  facet normal -0.23329 -0.565432 -0.791114
    outer loop
      vertex 107.997 112.77 4.95
      vertex 46.4665 75.1258 50
      vertex 46.4522 75.1317 50
    endloop
  endfacet
  facet normal 0.130528 -0.991445 0
    outer loop
      vertex 10.003 112.77 0
      vertex 11.75 113 4.95
      vertex 10.003 112.77 4.95
    endloop
  endfacet
  facet normal 0.130528 -0.991445 0
    outer loop
      vertex 11.75 113 4.95
      vertex 10.003 112.77 0
      vertex 11.75 113 0
    endloop
  endfacet
  facet normal -0.717972 -0.0754615 -0.69197
    outer loop
      vertex 113 106.25 4.95
      vertex 77.3168 32.6535 50
      vertex 76.3421 41.9272 50
    endloop
  endfacet
  facet normal 0.406734 0.913546 -0
    outer loop
      vertex 18.0942 -10.7975 40.3
      vertex 9.5 -6.97114 50
      vertex 18.0942 -10.7975 50
    endloop
  endfacet
  facet normal 0.406734 0.913546 0
    outer loop
      vertex 9.5 -6.97114 50
      vertex 18.0942 -10.7975 40.3
      vertex 9.5 -6.97114 40.3
    endloop
  endfacet
  facet normal -0.675786 0.390167 -0.625366
    outer loop
      vertex 73.4527 13.65 50
      vertex 112.096 8.375 4.95
      vertex 68.7903 5.57453 50
    endloop
  endfacet
  facet normal -0.542699 0.707275 -0.453034
    outer loop
      vertex 109.625 5.90433 4.95
      vertex 62.5413 -1.36743 50
      vertex 111.023 6.97703 4.95
    endloop
  endfacet
  facet normal -0.542753 0.707189 -0.453104
    outer loop
      vertex 62.5413 -1.36743 50
      vertex 109.625 5.90433 4.95
      vertex 62.529 -1.37687 50
    endloop
  endfacet
  facet normal -0.923948 -0.382519 0
    outer loop
      vertex 112.77 107.997 0
      vertex 112.096 109.625 4.95
      vertex 112.096 109.625 0
    endloop
  endfacet
  facet normal -0.923948 -0.382519 0
    outer loop
      vertex 112.096 109.625 4.95
      vertex 112.77 107.997 0
      vertex 112.77 107.997 4.95
    endloop
  endfacet
  facet normal 0.968122 -0.25048 0
    outer loop
      vertex 5.23 107.997 4.95
      vertex 5.18731 107.832 0
      vertex 5.23 107.997 0
    endloop
  endfacet
  facet normal 0.968106 -0.25054 8.25854e-06
    outer loop
      vertex -12.0166 41.356 40.3
      vertex 5.23 107.997 4.95
      vertex -11.8649 41.9425 50
    endloop
  endfacet
  facet normal 0.968139 -0.250412 0
    outer loop
      vertex -12.0166 41.356 40.3
      vertex -11.8649 41.9425 50
      vertex -12.0166 41.356 50
    endloop
  endfacet
  facet normal 0.968105 -0.250543 2.26294e-06
    outer loop
      vertex 5.23 107.997 4.95
      vertex -12.0166 41.356 40.3
      vertex 5.18731 107.832 0
    endloop
  endfacet
  facet normal -0.783888 0 -0.620902
    outer loop
      vertex 113 11.75 4.95
      vertex 77.3168 32.6535 50
      vertex 113 106.25 4.95
    endloop
  endfacet
  facet normal -0.783888 -0 -0.620902
    outer loop
      vertex 77.3168 32.6535 50
      vertex 113 11.75 4.95
      vertex 77.3168 31.8218 50
    endloop
  endfacet
  facet normal -0.763645 0.0802619 -0.640628
    outer loop
      vertex 77.3168 31.8218 50
      vertex 113 11.75 4.95
      vertex 76.3421 22.5481 50
    endloop
  endfacet
  facet normal -0.60886 -0.793277 0
    outer loop
      vertex 109.625 112.096 0
      vertex 111.023 111.023 4.95
      vertex 109.625 112.096 4.95
    endloop
  endfacet
  facet normal -0.60886 -0.793277 -0
    outer loop
      vertex 111.023 111.023 4.95
      vertex 109.625 112.096 0
      vertex 111.023 111.023 0
    endloop
  endfacet
  facet normal 0.994521 0.104533 0
    outer loop
      vertex -12.0166 22.644 50
      vertex -13 32 40.3
      vertex -13 32 50
    endloop
  endfacet
  facet normal 0.994521 0.104533 0
    outer loop
      vertex -13 32 40.3
      vertex -12.0166 22.644 50
      vertex -12.0166 22.644 40.3
    endloop
  endfacet
  facet normal 0 -0.78182 -0.623504
    outer loop
      vertex 11.75 113 4.95
      vertex 37.3158 77.0725 50
      vertex 27.1594 77.0725 50
    endloop
  endfacet
  facet normal 0 -0.78182 -0.623504
    outer loop
      vertex 37.3158 77.0725 50
      vertex 11.75 113 4.95
      vertex 106.25 113 4.95
    endloop
  endfacet
  facet normal -0.722853 0.234868 -0.649862
    outer loop
      vertex 76.3401 22.5327 50
      vertex 112.77 10.003 4.95
      vertex 73.4586 13.6643 50
    endloop
  endfacet
  facet normal -0.64233 0.493015 -0.586812
    outer loop
      vertex 111.023 6.97703 4.95
      vertex 68.7903 5.57453 50
      vertex 112.096 8.375 4.95
    endloop
  endfacet
  facet normal -0.641386 0.495379 -0.585853
    outer loop
      vertex 68.7903 5.57453 50
      vertex 111.023 6.97703 4.95
      vertex 68.7808 5.56223 50
    endloop
  endfacet
  facet normal -0.334497 -0.460393 -0.822283
    outer loop
      vertex 109.625 112.096 4.95
      vertex 62.529 65.8521 50
      vertex 54.9851 71.3331 50
    endloop
  endfacet
  facet normal -0.345539 -0.450199 -0.823361
    outer loop
      vertex 62.5413 65.8427 50
      vertex 109.625 112.096 4.95
      vertex 111.023 111.023 4.95
    endloop
  endfacet
  facet normal -0.344671 -0.451006 -0.823283
    outer loop
      vertex 109.625 112.096 4.95
      vertex 62.5413 65.8427 50
      vertex 62.529 65.8521 50
    endloop
  endfacet
  facet normal 0.571625 0.786245 0.234658
    outer loop
      vertex 8.35895 5.88615 0
      vertex 9.5 -6.97114 40.3
      vertex 8.37778 5.87246 0
    endloop
  endfacet
  facet normal 0.571364 0.786416 0.23472
    outer loop
      vertex 9.5 -6.97114 40.3
      vertex 8.35895 5.88615 0
      vertex 1.88912 -1.44152 40.3
    endloop
  endfacet
  facet normal 0 1 -0
    outer loop
      vertex 36.7038 -12.7535 40.3
      vertex 27.2962 -12.7535 50
      vertex 36.7038 -12.7535 50
    endloop
  endfacet
  facet normal 0 1 0
    outer loop
      vertex 27.2962 -12.7535 50
      vertex 36.7038 -12.7535 40.3
      vertex 27.2962 -12.7535 40.3
    endloop
  endfacet
  facet normal 0.608869 -0.793271 0
    outer loop
      vertex 6.97703 111.023 0
      vertex 8.375 112.096 4.95
      vertex 6.97703 111.023 4.95
    endloop
  endfacet
  facet normal 0.608869 -0.793271 0
    outer loop
      vertex 8.375 112.096 4.95
      vertex 6.97703 111.023 0
      vertex 8.375 112.096 0
    endloop
  endfacet
  facet normal 0.640646 -0.576836 -0.506787
    outer loop
      vertex 6.97703 111.023 4.95
      vertex 1.9339 65.8427 50
      vertex -4.30559 58.913 50
    endloop
  endfacet
  facet normal 0.587785 0.809017 -0
    outer loop
      vertex 9.5 -6.97114 40.3
      vertex 1.88912 -1.44152 50
      vertex 9.5 -6.97114 50
    endloop
  endfacet
  facet normal 0.587785 0.809017 0
    outer loop
      vertex 1.88912 -1.44152 50
      vertex 9.5 -6.97114 40.3
      vertex 1.88912 -1.44152 40.3
    endloop
  endfacet
  facet normal -0.207917 0.978146 0
    outer loop
      vertex 45.9058 -10.7975 40.3
      vertex 36.7038 -12.7535 50
      vertex 45.9058 -10.7975 50
    endloop
  endfacet
  facet normal -0.207917 0.978146 0
    outer loop
      vertex 36.7038 -12.7535 50
      vertex 45.9058 -10.7975 40.3
      vertex 36.7038 -12.7535 40.3
    endloop
  endfacet
  facet normal -0.214511 0.975049 0.0571395
    outer loop
      vertex 107.821 5.18549 0
      vertex 45.9058 -10.7975 40.3
      vertex 107.843 5.19033 0
    endloop
  endfacet
  facet normal -0.207431 0.97586 0.0683378
    outer loop
      vertex 45.9058 -10.7975 40.3
      vertex 107.821 5.18549 0
      vertex 36.7038 -12.7535 40.3
    endloop
  endfacet
  facet normal -0.615722 0.554399 -0.559935
    outer loop
      vertex 68.7808 5.56223 50
      vertex 111.023 6.97703 4.95
      vertex 62.5413 -1.36743 50
    endloop
  endfacet
  facet normal 0.838976 0.48438 0.247982
    outer loop
      vertex -4.40576 5.54966 40.3
      vertex 5.86717 8.38817 0
      vertex -9.10954 13.6969 40.3
    endloop
  endfacet
  facet normal 0.838964 0.484402 0.24798
    outer loop
      vertex 5.86717 8.38817 0
      vertex -4.40576 5.54966 40.3
      vertex 5.87881 8.36801 0
    endloop
  endfacet
  facet normal -0.0916185 -0.705463 -0.7028
    outer loop
      vertex 106.25 113 4.95
      vertex 37.3312 77.0705 50
      vertex 37.3158 77.0725 50
    endloop
  endfacet
  facet normal -0.0927408 -0.704427 -0.703691
    outer loop
      vertex 37.3312 77.0705 50
      vertex 106.25 113 4.95
      vertex 107.997 112.77 4.95
    endloop
  endfacet
  facet normal -0.127691 0.970082 0.206483
    outer loop
      vertex 107.821 5.18549 0
      vertex 106.078 4.95606 0
      vertex 36.7038 -12.7535 40.3
    endloop
  endfacet
  facet normal 0.970677 -0.12777 0.203619
    outer loop
      vertex 4.95788 106.089 0
      vertex 5.18731 107.832 0
      vertex -12.0166 41.356 40.3
    endloop
  endfacet
  facet normal -0.566136 -0.233581 -0.790525
    outer loop
      vertex 73.4527 50.8252 50
      vertex 112.77 107.997 4.95
      vertex 73.4586 50.8109 50
    endloop
  endfacet
  facet normal -0.565574 -0.234151 -0.790759
    outer loop
      vertex 112.77 107.997 4.95
      vertex 73.4527 50.8252 50
      vertex 112.096 109.625 4.95
    endloop
  endfacet
  facet normal -0.793277 -0.60886 0
    outer loop
      vertex 112.096 109.625 0
      vertex 111.023 111.023 4.95
      vertex 111.023 111.023 0
    endloop
  endfacet
  facet normal -0.793277 -0.60886 0
    outer loop
      vertex 111.023 111.023 4.95
      vertex 112.096 109.625 0
      vertex 112.096 109.625 4.95
    endloop
  endfacet
  facet normal 0.913438 -0 0.406978
    outer loop
      vertex 4.95545 11.8001 0
      vertex 4.95545 106.066 0
      vertex -13 32 40.3
    endloop
  endfacet
  facet normal 0.158091 -0.743732 -0.649516
    outer loop
      vertex 27.144 77.0705 50
      vertex 18.023 75.1317 50
      vertex 10.003 112.77 4.95
    endloop
  endfacet
  facet normal 0.121791 0.9251 0.359663
    outer loop
      vertex 27.2962 -12.7535 40.3
      vertex 11.7885 4.95606 0
      vertex 10.0458 5.18549 0
    endloop
  endfacet
  facet normal -0 0.915503 0.402311
    outer loop
      vertex 11.7885 4.95606 0
      vertex 36.7038 -12.7535 40.3
      vertex 106.078 4.95606 0
    endloop
  endfacet
  facet normal 0 0.915503 0.402311
    outer loop
      vertex 36.7038 -12.7535 40.3
      vertex 11.7885 4.95606 0
      vertex 27.2962 -12.7535 40.3
    endloop
  endfacet
  facet normal -0.382679 0.923881 0
    outer loop
      vertex 109.625 5.90433 0
      vertex 107.997 5.23 4.95
      vertex 109.625 5.90433 4.95
    endloop
  endfacet
  facet normal -0.382679 0.923881 0
    outer loop
      vertex 107.997 5.23 4.95
      vertex 109.625 5.90433 0
      vertex 107.997 5.23 0
    endloop
  endfacet
  facet normal 0.59168 0.771101 0.235197
    outer loop
      vertex 8.35895 5.88615 0
      vertex 6.96443 6.95619 0
      vertex 1.88912 -1.44152 40.3
    endloop
  endfacet
  facet normal 0.926045 0.121916 0.357178
    outer loop
      vertex 5.18731 10.0343 0
      vertex 4.95788 11.777 0
      vertex -12.0166 22.644 40.3
    endloop
  endfacet
  facet normal 0.947038 -0.307716 -0.09182
    outer loop
      vertex 5.23 107.997 4.95
      vertex -8.98334 50.8109 50
      vertex -11.8649 41.9425 50
    endloop
  endfacet
  facet normal 0.906924 -0.375655 -0.190717
    outer loop
      vertex -8.97741 50.8252 50
      vertex 5.23 107.997 4.95
      vertex 5.90433 109.625 4.95
    endloop
  endfacet
  facet normal 0.906681 -0.375987 -0.191216
    outer loop
      vertex 5.23 107.997 4.95
      vertex -8.97741 50.8252 50
      vertex -8.98334 50.8109 50
    endloop
  endfacet
  facet normal 0.926328 0.0973655 0.363917
    outer loop
      vertex -12.0166 22.644 40.3
      vertex 4.95545 11.8001 0
      vertex -13 32 40.3
    endloop
  endfacet
  facet normal 0.926328 0.0974449 0.363896
    outer loop
      vertex 4.95545 11.8001 0
      vertex -12.0166 22.644 40.3
      vertex 4.95788 11.777 0
    endloop
  endfacet
  facet normal -0.793271 0.608869 0
    outer loop
      vertex 111.023 6.97703 0
      vertex 112.096 8.375 4.95
      vertex 112.096 8.375 0
    endloop
  endfacet
  facet normal -0.793271 0.608869 0
    outer loop
      vertex 112.096 8.375 4.95
      vertex 111.023 6.97703 0
      vertex 111.023 6.97703 4.95
    endloop
  endfacet
  facet normal -0.375463 0.90646 -0.19328
    outer loop
      vertex 107.997 5.23 4.95
      vertex 46.4665 -10.6506 50
      vertex 109.625 5.90433 4.95
    endloop
  endfacet
  facet normal -0.374345 0.90731 -0.191454
    outer loop
      vertex 46.4665 -10.6506 50
      vertex 107.997 5.23 4.95
      vertex 46.4522 -10.6565 50
    endloop
  endfacet
  facet normal -0.249867 0.96828 0
    outer loop
      vertex 46.4522 -10.6565 50
      vertex 45.9058 -10.7975 40.3
      vertex 45.9058 -10.7975 50
    endloop
  endfacet
  facet normal -0.249934 0.968263 3.99829e-06
    outer loop
      vertex 107.997 5.23 4.95
      vertex 45.9058 -10.7975 40.3
      vertex 46.4522 -10.6565 50
    endloop
  endfacet
  facet normal -0.249454 0.968387 0
    outer loop
      vertex 107.843 5.19033 0
      vertex 107.997 5.23 4.95
      vertex 107.997 5.23 0
    endloop
  endfacet
  facet normal -0.249928 0.968265 1.57163e-05
    outer loop
      vertex 107.997 5.23 4.95
      vertex 107.843 5.19033 0
      vertex 45.9058 -10.7975 40.3
    endloop
  endfacet
  facet normal 0.367553 0.887349 0.278417
    outer loop
      vertex 18.0942 -10.7975 40.3
      vertex 10.023 5.19033 0
      vertex 8.39906 5.86299 0
    endloop
  endfacet
  facet normal -0.703981 -0.0920236 -0.704232
    outer loop
      vertex 76.3401 41.9425 50
      vertex 113 106.25 4.95
      vertex 76.3421 41.9272 50
    endloop
  endfacet
  facet normal -0.703472 -0.0926151 -0.704663
    outer loop
      vertex 113 106.25 4.95
      vertex 76.3401 41.9425 50
      vertex 112.77 107.997 4.95
    endloop
  endfacet
  facet normal 0.196463 0.924262 0.327326
    outer loop
      vertex 10.0458 5.18549 0
      vertex 18.0942 -10.7975 40.3
      vertex 27.2962 -12.7535 40.3
    endloop
  endfacet
  facet normal 0.19621 0.924293 0.327389
    outer loop
      vertex 18.0942 -10.7975 40.3
      vertex 10.0458 5.18549 0
      vertex 10.023 5.19033 0
    endloop
  endfacet
  facet normal -0.991445 -0.130528 0
    outer loop
      vertex 113 106.25 0
      vertex 112.77 107.997 4.95
      vertex 112.77 107.997 0
    endloop
  endfacet
  facet normal -0.991445 -0.130528 0
    outer loop
      vertex 112.77 107.997 4.95
      vertex 113 106.25 0
      vertex 113 106.25 4.95
    endloop
  endfacet
  facet normal 0.292891 -0.707459 -0.643208
    outer loop
      vertex 10.003 112.77 4.95
      vertex 18.0087 75.1258 50
      vertex 8.375 112.096 4.95
    endloop
  endfacet
  facet normal 0.292008 -0.707748 -0.643292
    outer loop
      vertex 18.0087 75.1258 50
      vertex 10.003 112.77 4.95
      vertex 18.023 75.1317 50
    endloop
  endfacet
  facet normal 0.382519 -0.923948 0
    outer loop
      vertex 8.375 112.096 0
      vertex 10.003 112.77 4.95
      vertex 8.375 112.096 4.95
    endloop
  endfacet
  facet normal 0.382519 -0.923948 0
    outer loop
      vertex 10.003 112.77 4.95
      vertex 8.375 112.096 0
      vertex 10.003 112.77 0
    endloop
  endfacet
  facet normal 0.79336 -0.608753 0
    outer loop
      vertex 5.90433 109.625 4.95
      vertex 6.97703 111.023 0
      vertex 6.97703 111.023 4.95
    endloop
  endfacet
  facet normal 0.79336 -0.608753 0
    outer loop
      vertex 6.97703 111.023 0
      vertex 5.90433 109.625 4.95
      vertex 5.90433 109.625 0
    endloop
  endfacet
  facet normal 0.964749 -0.101928 0.242631
    outer loop
      vertex -12.0166 41.356 40.3
      vertex 4.95545 106.066 0
      vertex 4.95788 106.089 0
    endloop
  endfacet
  facet normal 0.964603 -0.101389 0.243435
    outer loop
      vertex 4.95545 106.066 0
      vertex -12.0166 41.356 40.3
      vertex -13 32 40.3
    endloop
  endfacet
  facet normal 0.994521 -0.104533 0
    outer loop
      vertex -13 32 50
      vertex -12.0166 41.356 40.3
      vertex -12.0166 41.356 50
    endloop
  endfacet
  facet normal 0.994521 -0.104533 0
    outer loop
      vertex -12.0166 41.356 40.3
      vertex -13 32 50
      vertex -13 32 40.3
    endloop
  endfacet
  facet normal 0.908586 0.295214 0.2955
    outer loop
      vertex -9.10954 13.6969 40.3
      vertex 5.18731 10.0343 0
      vertex -12.0166 22.644 40.3
    endloop
  endfacet
  facet normal 0.908717 0.294719 0.295592
    outer loop
      vertex 5.18731 10.0343 0
      vertex -9.10954 13.6969 40.3
      vertex 5.19451 10.0121 0
    endloop
  endfacet
  facet normal 0.391689 0.879753 0.26947
    outer loop
      vertex 8.39906 5.86299 0
      vertex 9.5 -6.97114 40.3
      vertex 18.0942 -10.7975 40.3
    endloop
  endfacet
  facet normal 0.391534 0.879815 0.269494
    outer loop
      vertex 9.5 -6.97114 40.3
      vertex 8.39906 5.86299 0
      vertex 8.37778 5.87246 0
    endloop
  endfacet
  facet normal 0.951057 0.309014 0
    outer loop
      vertex -9.10954 13.6969 50
      vertex -12.0166 22.644 40.3
      vertex -12.0166 22.644 50
    endloop
  endfacet
  facet normal 0.951057 0.309014 0
    outer loop
      vertex -12.0166 22.644 40.3
      vertex -9.10954 13.6969 50
      vertex -9.10954 13.6969 40.3
    endloop
  endfacet
  facet normal 0.886621 0.367254 0.281117
    outer loop
      vertex 5.86717 8.38817 0
      vertex 5.19451 10.0121 0
      vertex -9.10954 13.6969 40.3
    endloop
  endfacet
  facet normal -0.382519 -0.923948 0
    outer loop
      vertex 107.997 112.77 0
      vertex 109.625 112.096 4.95
      vertex 107.997 112.77 4.95
    endloop
  endfacet
  facet normal -0.382519 -0.923948 -0
    outer loop
      vertex 109.625 112.096 4.95
      vertex 107.997 112.77 0
      vertex 109.625 112.096 0
    endloop
  endfacet
  facet normal -0.130528 -0.991445 0
    outer loop
      vertex 106.25 113 0
      vertex 107.997 112.77 4.95
      vertex 106.25 113 4.95
    endloop
  endfacet
  facet normal -0.130528 -0.991445 -0
    outer loop
      vertex 107.997 112.77 4.95
      vertex 106.25 113 0
      vertex 107.997 112.77 0
    endloop
  endfacet
  facet normal 0.490701 -0.642087 -0.589013
    outer loop
      vertex 6.97703 111.023 4.95
      vertex 1.9462 65.8521 50
      vertex 1.9339 65.8427 50
    endloop
  endfacet
  facet normal 0.492383 -0.641506 -0.588242
    outer loop
      vertex 1.9462 65.8521 50
      vertex 6.97703 111.023 4.95
      vertex 8.375 112.096 4.95
    endloop
  endfacet
  facet normal 0.923881 -0.382679 0
    outer loop
      vertex 5.23 107.997 4.95
      vertex 5.90433 109.625 0
      vertex 5.90433 109.625 4.95
    endloop
  endfacet
  facet normal 0.923881 -0.382679 0
    outer loop
      vertex 5.90433 109.625 0
      vertex 5.23 107.997 4.95
      vertex 5.23 107.997 0
    endloop
  endfacet
  facet normal 0.723874 0.651529 0.226972
    outer loop
      vertex -4.40576 5.54966 40.3
      vertex 6.96443 6.95619 0
      vertex 6.94885 6.9735 0
    endloop
  endfacet
  facet normal 0.723755 0.651671 0.226944
    outer loop
      vertex 6.96443 6.95619 0
      vertex -4.40576 5.54966 40.3
      vertex 1.88912 -1.44152 40.3
    endloop
  endfacet
  facet normal 0.207917 0.978146 -0
    outer loop
      vertex 27.2962 -12.7535 40.3
      vertex 18.0942 -10.7975 50
      vertex 27.2962 -12.7535 50
    endloop
  endfacet
  facet normal 0.207917 0.978146 0
    outer loop
      vertex 18.0942 -10.7975 50
      vertex 27.2962 -12.7535 40.3
      vertex 18.0942 -10.7975 40.3
    endloop
  endfacet
endsolid OpenSCAD_Model
